PathFileType	4	(X/Y/Z)	TVC_41_Cal_03_0_static_RCNL2025.trc
DataRate	CameraRate	NumFrames	NumMarkers	Units	OrigDataRate	OrigDataStartFrame	OrigNumFrames
100	100	12	27	mm	100	59	234
Frame#	Time	R_Shoulder			L_Shoulder			C7			J_Notch			R_Elbow			L_Elbow			R_Wrist			L_Wrist			R_Asis			L_Asis			R_Psis			L_Psis			Sacral			Thoracic			Sternum			R_Thigh_Lateral			R_Knee_Lateral			R_Shank_Lateral			R_Ankle_Lateral			R_Heel			R_Toe			L_Thigh_Lateral			L_Knee_Lateral			L_Shank_Lateral			L_Ankle_Lateral			L_Heel			L_Toe		
		X1	Y1	Z1	X2	Y2	Z2	X3	Y3	Z3	X4	Y4	Z4	X5	Y5	Z5	X6	Y6	Z6	X7	Y7	Z7	X8	Y8	Z8	X9	Y9	Z9	X10	Y10	Z10	X11	Y11	Z11	X12	Y12	Z12	X13	Y13	Z13	X14	Y14	Z14	X15	Y15	Z15	X16	Y16	Z16	X17	Y17	Z17	X18	Y18	Z18	X19	Y19	Z19	X20	Y20	Z20	X21	Y21	Z21	X22	Y22	Z22	X23	Y23	Z23	X24	Y24	Z24	X25	Y25	Z25	X26	Y26	Z26	X27	Y27	Z27
59	0.58000000	-283.569366	1276.223389	-68.137482	-290.389465	1249.033325	-404.201538	-359.836731	1309.969482	-233.886459	-223.779419	1221.421997	-228.882401	-247.888550	985.429504	-12.420662	-303.388763	950.886536	-444.325897	-188.187187	783.337585	-26.328308	-230.030983	757.584747	-452.839737	-224.517471	859.562378	-86.320953	-224.636429	859.613770	-331.088470	-359.256836	881.806213	-154.183716	-396.023560	883.564148	-242.480408	-377.640198	882.685181	-198.332062	-362.551636	1013.452087	-216.325867	-172.881714	1046.097900	-227.525528	-271.558075	640.965820	6.058623	-262.738190	412.723480	-58.005100	-296.669769	286.254272	-1.293603	-282.255493	73.427216	-65.050850	-317.834198	45.814140	-121.344124	-172.867081	45.542210	-40.101135	-315.463684	593.352356	-417.031586	-308.346008	409.307526	-339.588806	-312.021942	269.233063	-378.554535	-337.740631	66.817108	-300.504089	-376.152557	43.756035	-258.262878	-212.711685	39.568699	-289.415253
60	0.59000000	-283.599121	1276.229492	-68.198570	-290.420471	1249.057739	-404.246826	-359.737274	1309.995483	-233.962646	-223.801437	1221.434448	-228.837021	-248.247314	985.529541	-12.407849	-303.291168	950.889587	-444.334198	-187.970634	783.395966	-26.473869	-229.954865	757.561005	-452.922897	-224.579681	859.516541	-86.380295	-224.623184	859.611938	-331.073456	-359.149780	881.839600	-154.260117	-396.010040	883.500671	-242.521317	-377.579910	882.670135	-198.390717	-362.550659	1013.425720	-216.327026	-172.866409	1046.101196	-227.537247	-271.464905	640.972290	5.919029	-262.753418	412.686890	-58.037193	-296.674927	286.259949	-1.293006	-282.217010	73.497543	-65.074837	-317.780090	45.857056	-121.297066	-172.887924	45.586544	-40.210205	-315.456543	593.429871	-417.063293	-308.330963	409.295837	-339.597595	-312.073700	269.174042	-378.688416	-337.800232	66.856178	-300.404816	-376.260193	43.890965	-258.198578	-212.698059	39.546337	-289.421844
61	0.60000000	-283.617859	1276.235962	-68.259399	-290.367432	1249.070557	-404.301392	-359.737946	1310.001465	-233.949188	-223.784103	1221.513184	-228.783249	-247.951080	985.567688	-12.310408	-303.242645	950.858765	-444.458801	-188.209030	783.423187	-26.260612	-229.863495	757.600189	-452.914520	-224.532913	859.475159	-86.451050	-224.602859	859.662659	-331.059204	-359.111664	881.840271	-154.258865	-396.016357	883.550476	-242.489456	-377.564011	882.695374	-198.374161	-362.469635	1013.487854	-216.369980	-172.844330	1046.177246	-227.512909	-271.674500	640.826904	6.383154	-262.787476	412.717804	-58.071636	-296.669678	286.268372	-1.291242	-282.241333	73.469933	-65.026985	-317.867249	45.885063	-121.333267	-172.845139	45.655136	-40.179451	-315.431946	593.404846	-417.076508	-308.346741	409.282928	-339.583160	-312.124176	269.216095	-378.655548	-337.772888	66.922272	-300.475952	-376.224426	43.835869	-258.254791	-212.692001	39.562321	-289.457428
62	0.61000000	-283.617249	1276.200439	-68.280403	-290.337036	1249.052856	-404.315430	-359.789917	1310.006348	-234.048813	-223.853516	1221.506836	-228.910034	-247.980331	985.631104	-12.411987	-303.237091	950.988831	-444.399902	-188.040260	783.332550	-26.539701	-229.825394	757.578186	-452.923935	-224.528488	859.584167	-86.424713	-224.643448	859.644226	-331.070892	-359.102661	881.865356	-154.244873	-396.012451	883.576233	-242.520157	-377.557556	882.720795	-198.382515	-362.460907	1013.490112	-216.370285	-172.838257	1046.188843	-227.505310	-271.568298	640.910889	6.080511	-262.679962	412.694336	-58.063587	-296.666779	286.269440	-1.291049	-282.238281	73.488663	-65.018082	-317.831085	45.856628	-121.322601	-172.860458	45.517872	-40.295120	-315.406128	593.455444	-417.094757	-308.376617	409.268951	-339.606964	-312.109863	269.223206	-378.665527	-337.821808	66.923042	-300.417938	-376.185516	43.784782	-258.255737	-212.637115	39.514160	-289.378784
63	0.62000000	-283.616425	1276.233643	-68.257019	-290.367889	1249.044189	-404.277374	-359.841949	1309.960205	-234.026306	-223.899567	1221.493286	-228.828918	-248.085220	985.732361	-12.283426	-303.159546	950.986816	-444.410980	-187.923553	783.362701	-26.606048	-229.762169	757.614655	-452.982941	-224.546967	859.489502	-86.434616	-224.644089	859.638367	-331.054901	-359.014008	881.771790	-154.121735	-396.026917	883.510986	-242.501709	-377.520462	882.641388	-198.311722	-362.519745	1013.476990	-216.374924	-172.839188	1046.224976	-227.508270	-271.469574	640.982056	5.922059	-262.646118	412.695221	-58.096062	-296.695190	286.295654	-1.273832	-282.215454	73.473381	-65.078575	-317.772034	45.835583	-121.304947	-172.876999	45.470852	-40.108147	-315.192841	593.283997	-417.151550	-308.395050	409.212982	-339.643005	-312.192352	269.282990	-378.730194	-337.826508	66.866829	-300.408997	-376.195068	43.773571	-258.257172	-212.672577	39.491253	-289.348145
64	0.63000000	-283.605530	1276.225098	-68.277298	-290.342407	1249.052612	-404.319244	-359.767670	1309.968140	-234.061203	-223.912048	1221.493042	-228.860535	-247.900116	985.611877	-12.311678	-303.081360	950.888550	-444.520111	-187.851822	783.467255	-26.645275	-229.627090	757.648407	-452.986435	-224.494888	859.554504	-86.462883	-224.625763	859.733704	-331.069672	-359.130402	881.762878	-154.081024	-396.005951	883.514282	-242.524521	-377.568176	882.638580	-198.302773	-362.504517	1013.412048	-216.363907	-172.820892	1046.234619	-227.513687	-271.398651	641.040405	5.950994	-262.651245	412.657806	-58.091579	-296.528259	286.418671	-1.273943	-282.204193	73.415871	-65.093727	-317.810211	45.865501	-121.324120	-172.925140	45.509346	-40.220543	-315.292969	593.402649	-417.118713	-308.425323	409.203857	-339.661987	-312.327271	269.291748	-378.795990	-337.776215	66.809822	-300.403107	-376.202637	43.779999	-258.264984	-212.617859	39.465675	-289.377441
65	0.64000000	-283.624695	1276.277832	-68.353561	-290.299896	1249.045410	-404.376221	-359.752960	1309.983887	-234.087646	-223.904404	1221.494873	-228.858292	-247.810684	985.535522	-12.412533	-302.714783	951.339050	-444.463501	-188.087753	783.504669	-26.198995	-229.497223	757.669464	-453.031921	-224.502350	859.586304	-86.456337	-224.597733	859.766541	-331.111633	-359.150269	881.554321	-153.973618	-396.018494	883.545715	-242.501572	-377.584381	882.550018	-198.237595	-362.565460	1013.500183	-216.419632	-172.814774	1046.237549	-227.542130	-271.415863	641.020386	5.912838	-262.761597	412.722839	-58.065628	-296.610748	286.295349	-1.291231	-282.217224	73.367783	-65.114578	-317.863800	45.916363	-121.324913	-172.911499	45.486153	-40.104141	-315.443390	593.448730	-417.101257	-308.422638	409.207245	-339.646149	-312.326019	269.255127	-378.810608	-337.817505	66.891388	-300.394897	-376.177948	43.843124	-258.267975	-212.570648	39.477417	-289.407684
66	0.65000000	-283.577881	1276.304688	-68.396149	-290.297028	1249.096924	-404.383484	-359.755981	1309.985229	-234.087936	-223.901688	1221.483032	-228.851593	-247.768051	985.545044	-12.272026	-302.601318	951.388611	-444.625336	-188.276306	783.494781	-26.136865	-229.385956	757.690979	-453.058136	-224.454178	859.558105	-86.469063	-224.696793	859.729980	-331.106537	-358.978516	881.689697	-153.959030	-396.022888	883.549255	-242.497665	-377.500702	882.619476	-198.228348	-362.502045	1013.503235	-216.468292	-172.748093	1046.254028	-227.645660	-271.389801	641.060608	5.940107	-262.793762	412.732635	-58.104710	-296.668274	286.255157	-1.296314	-282.182709	73.494431	-65.102196	-317.894867	45.877556	-121.310852	-172.922592	45.521313	-40.234627	-315.465057	593.489746	-417.105621	-308.457520	409.240509	-339.650574	-312.438904	269.255463	-378.853760	-337.814941	66.749069	-300.299377	-376.181183	43.908329	-258.296112	-212.578873	39.513821	-289.386749
67	0.66000000	-283.584778	1276.331543	-68.396187	-290.302887	1249.130615	-404.423370	-359.757446	1309.985107	-234.086502	-223.871292	1221.512085	-228.931778	-247.654663	985.784729	-11.783752	-302.500427	951.342773	-444.688171	-187.917587	783.398651	-26.433301	-229.314758	757.686768	-453.064438	-224.417282	859.527283	-86.498123	-224.730881	859.614441	-331.216309	-359.103333	881.881226	-154.292297	-396.024292	883.551453	-242.517883	-377.563812	882.716339	-198.405090	-362.518402	1013.524170	-216.474609	-172.751953	1046.247803	-227.563232	-271.478760	640.997253	5.972488	-262.794250	412.736938	-58.085289	-296.677429	286.262726	-1.292516	-282.180450	73.507141	-65.092377	-317.801483	45.857468	-121.373772	-172.942276	45.557270	-40.226238	-315.341827	593.271851	-417.218506	-308.529510	409.261841	-339.663177	-312.559601	269.302612	-378.899231	-337.803833	66.637962	-300.215729	-376.140503	43.847733	-258.317932	-212.589188	39.559639	-289.384491
68	0.67000000	-283.513123	1276.304932	-68.377502	-290.285492	1249.125244	-404.438263	-359.759857	1309.967163	-234.082001	-223.801346	1221.553101	-228.973221	-247.750290	985.749390	-12.269318	-302.463501	951.389160	-444.576111	-187.779137	783.472137	-26.560616	-229.198143	757.791412	-453.119522	-224.398819	859.550720	-86.548622	-224.744339	859.633423	-331.208313	-359.175781	881.906006	-154.334442	-396.051636	883.619507	-242.449814	-377.613708	882.762756	-198.392128	-362.526520	1013.535767	-216.435333	-172.743500	1046.265137	-227.636490	-271.634735	640.806763	6.128398	-262.743042	412.696198	-58.148880	-296.516815	286.408752	-1.281621	-282.234528	73.459030	-65.063057	-317.871674	45.857658	-121.377716	-172.851089	45.516964	-40.044529	-315.447449	593.237793	-417.219055	-308.577332	409.280975	-339.706665	-312.557831	269.302887	-378.928223	-337.825775	66.677788	-300.329346	-376.140839	43.771515	-258.352478	-212.621765	39.501163	-289.348053
69	0.68000000	-283.552155	1276.307495	-68.427345	-290.292328	1249.122803	-404.460480	-359.763977	1309.954834	-234.103668	-223.785019	1221.550171	-228.999603	-247.741730	985.911621	-12.381524	-302.728729	951.085022	-444.538239	-187.733566	783.489746	-26.580937	-229.062187	757.772095	-453.151749	-224.434113	859.477234	-86.553093	-224.780304	859.646118	-331.209869	-359.146515	881.890564	-154.281036	-396.146667	883.592346	-242.402298	-377.646591	882.741455	-198.341667	-362.515381	1013.494629	-216.457977	-172.670074	1046.250488	-227.673782	-271.497772	640.929626	5.927699	-262.759766	412.716736	-58.176659	-296.610260	286.297119	-1.290503	-282.285065	73.456375	-65.056496	-317.874115	45.806606	-121.393860	-172.930847	45.527779	-40.228771	-315.649384	593.332153	-417.109222	-308.654297	409.257843	-339.672394	-312.651031	269.315704	-378.772827	-337.880066	66.716751	-300.219635	-376.280304	43.833534	-258.219940	-212.594284	39.463074	-289.391113
70	0.69000000	-283.470123	1276.350952	-68.476250	-290.241150	1249.085938	-404.546600	-359.724060	1310.001587	-234.222214	-223.789825	1221.567871	-228.977371	-247.563126	985.921387	-12.158566	-302.333710	951.291626	-444.965881	-188.005615	783.567383	-26.272098	-228.953377	757.816833	-453.185089	-224.403381	859.538879	-86.539192	-224.818649	859.598267	-331.117371	-359.116730	881.840027	-154.248657	-396.066071	883.515869	-242.479446	-377.591400	882.677948	-198.364052	-362.512024	1013.463196	-216.496170	-172.654282	1046.313599	-227.724197	-271.454468	640.890808	5.834238	-262.725403	412.717010	-58.121674	-296.695648	286.234283	-1.402339	-282.239441	73.431412	-65.083237	-317.862885	45.834835	-121.397842	-172.906525	45.586319	-40.303200	-315.599884	593.236511	-417.178284	-308.683746	409.239594	-339.715790	-312.696869	269.369171	-378.932190	-337.789581	66.796577	-300.538574	-376.120575	43.808212	-258.283966	-212.627853	39.489250	-289.482086
